<svg xmlns="http://www.w3.org/2000/svg" xmlns:xlink="http://www.w3.org/1999/xlink" width="500" zoomAndPan="magnify" viewBox="0 0 375 374.999991" height="500" preserveAspectRatio="xMidYMid meet" version="1.0"><defs><g/></defs><g fill="#ffffff" fill-opacity="1"><g transform="translate(-2.300105, 216.643247)"><g><path d="M 8.03125 -70.28125 L 21.4375 -70.28125 L 21.4375 -43.859375 L 45.125 -43.859375 L 45.125 -70.28125 L 58.53125 -70.28125 L 58.53125 0 L 45.125 0 L 45.125 -30.734375 L 21.4375 -30.734375 L 21.4375 0 L 8.03125 0 Z M 8.03125 -70.28125 "/></g></g></g><g fill="#ffffff" fill-opacity="1"><g transform="translate(54.275406, 216.643247)"><g><path d="M 31.234375 1.375 C 26.140625 1.375 21.503906 0.148438 17.328125 -2.296875 C 13.148438 -4.742188 9.867188 -8.070312 7.484375 -12.28125 C 5.109375 -16.488281 3.921875 -21.070312 3.921875 -26.03125 C 3.921875 -31.0625 5.160156 -35.664062 7.640625 -39.84375 C 10.117188 -44.019531 13.445312 -47.3125 17.625 -49.71875 C 21.800781 -52.132812 26.335938 -53.34375 31.234375 -53.34375 C 36.117188 -53.34375 40.648438 -52.132812 44.828125 -49.71875 C 49.003906 -47.3125 52.332031 -44.019531 54.8125 -39.84375 C 57.289062 -35.664062 58.53125 -31.0625 58.53125 -26.03125 C 58.53125 -21.070312 57.335938 -16.488281 54.953125 -12.28125 C 52.578125 -8.070312 49.300781 -4.742188 45.125 -2.296875 C 40.945312 0.148438 36.316406 1.375 31.234375 1.375 Z M 31.234375 -10.96875 C 33.835938 -10.96875 36.234375 -11.585938 38.421875 -12.828125 C 40.609375 -14.066406 42.320312 -15.828125 43.5625 -18.109375 C 44.800781 -20.390625 45.421875 -23 45.421875 -25.9375 C 45.421875 -28.875 44.816406 -31.484375 43.609375 -33.765625 C 42.398438 -36.054688 40.71875 -37.835938 38.5625 -39.109375 C 36.414062 -40.378906 33.972656 -41.015625 31.234375 -41.015625 C 28.484375 -41.015625 26.03125 -40.378906 23.875 -39.109375 C 21.726562 -37.835938 20.050781 -36.054688 18.84375 -33.765625 C 17.632812 -31.484375 17.03125 -28.875 17.03125 -25.9375 C 17.03125 -23 17.648438 -20.390625 18.890625 -18.109375 C 20.128906 -15.828125 21.84375 -14.066406 24.03125 -12.828125 C 26.21875 -11.585938 28.617188 -10.96875 31.234375 -10.96875 Z M 31.234375 -10.96875 "/></g></g></g><g fill="#ffffff" fill-opacity="1"><g transform="translate(106.739787, 216.643247)"><g><path d="M 8.125 -40.71875 L 1.46875 -40.71875 L 1.46875 -51.984375 L 8.125 -51.984375 L 8.125 -71.171875 L 21.140625 -71.171875 L 21.140625 -51.984375 L 28.875 -51.984375 L 28.875 -40.71875 L 21.140625 -40.71875 L 21.140625 0 L 8.125 0 Z M 8.125 -40.71875 "/></g></g></g><g fill="#ffffff" fill-opacity="1"><g transform="translate(126.119365, 216.643247)"><g><path d="M 31.234375 1.375 C 26.140625 1.375 21.503906 0.148438 17.328125 -2.296875 C 13.148438 -4.742188 9.867188 -8.070312 7.484375 -12.28125 C 5.109375 -16.488281 3.921875 -21.070312 3.921875 -26.03125 C 3.921875 -31.0625 5.160156 -35.664062 7.640625 -39.84375 C 10.117188 -44.019531 13.445312 -47.3125 17.625 -49.71875 C 21.800781 -52.132812 26.335938 -53.34375 31.234375 -53.34375 C 36.117188 -53.34375 40.648438 -52.132812 44.828125 -49.71875 C 49.003906 -47.3125 52.332031 -44.019531 54.8125 -39.84375 C 57.289062 -35.664062 58.53125 -31.0625 58.53125 -26.03125 C 58.53125 -21.070312 57.335938 -16.488281 54.953125 -12.28125 C 52.578125 -8.070312 49.300781 -4.742188 45.125 -2.296875 C 40.945312 0.148438 36.316406 1.375 31.234375 1.375 Z M 31.234375 -10.96875 C 33.835938 -10.96875 36.234375 -11.585938 38.421875 -12.828125 C 40.609375 -14.066406 42.320312 -15.828125 43.5625 -18.109375 C 44.800781 -20.390625 45.421875 -23 45.421875 -25.9375 C 45.421875 -28.875 44.816406 -31.484375 43.609375 -33.765625 C 42.398438 -36.054688 40.71875 -37.835938 38.5625 -39.109375 C 36.414062 -40.378906 33.972656 -41.015625 31.234375 -41.015625 C 28.484375 -41.015625 26.03125 -40.378906 23.875 -39.109375 C 21.726562 -37.835938 20.050781 -36.054688 18.84375 -33.765625 C 17.632812 -31.484375 17.03125 -28.875 17.03125 -25.9375 C 17.03125 -23 17.648438 -20.390625 18.890625 -18.109375 C 20.128906 -15.828125 21.84375 -14.066406 24.03125 -12.828125 C 26.21875 -11.585938 28.617188 -10.96875 31.234375 -10.96875 Z M 31.234375 -10.96875 "/></g></g></g><g fill="#ffffff" fill-opacity="1"><g transform="translate(178.583746, 216.643247)"><g><path d="M 20.65625 1.375 C 16.875 1.375 13.460938 0.625 10.421875 -0.875 C 7.390625 -2.375 4.734375 -4.59375 2.453125 -7.53125 L 10.46875 -16.34375 C 12.039062 -14.582031 13.820312 -13.128906 15.8125 -11.984375 C 17.800781 -10.847656 19.644531 -10.28125 21.34375 -10.28125 C 22.96875 -10.28125 24.332031 -10.6875 25.4375 -11.5 C 26.550781 -12.3125 27.109375 -13.304688 27.109375 -14.484375 C 27.109375 -15.265625 26.878906 -15.960938 26.421875 -16.578125 C 25.972656 -17.203125 25.238281 -17.859375 24.21875 -18.546875 C 23.207031 -19.234375 21.726562 -20.066406 19.78125 -21.046875 C 15.925781 -23.003906 12.90625 -24.832031 10.71875 -26.53125 C 8.53125 -28.226562 6.929688 -30.003906 5.921875 -31.859375 C 4.910156 -33.722656 4.40625 -35.894531 4.40625 -38.375 C 4.40625 -41.050781 5.125 -43.546875 6.5625 -45.859375 C 8 -48.179688 9.988281 -50.007812 12.53125 -51.34375 C 15.070312 -52.675781 17.976562 -53.34375 21.25 -53.34375 C 24.632812 -53.34375 27.8125 -52.609375 30.78125 -51.140625 C 33.75 -49.671875 36.28125 -47.535156 38.375 -44.734375 L 30.34375 -36.609375 C 28.78125 -38.171875 27.265625 -39.359375 25.796875 -40.171875 C 24.328125 -40.992188 22.84375 -41.40625 21.34375 -41.40625 C 19.96875 -41.40625 18.835938 -41.128906 17.953125 -40.578125 C 17.078125 -40.023438 16.640625 -39.257812 16.640625 -38.28125 C 16.640625 -37.363281 17 -36.609375 17.71875 -36.015625 C 18.4375 -35.429688 19.644531 -34.75 21.34375 -33.96875 C 25.84375 -31.8125 29.363281 -29.835938 31.90625 -28.046875 C 34.457031 -26.253906 36.335938 -24.328125 37.546875 -22.265625 C 38.753906 -20.210938 39.359375 -17.75 39.359375 -14.875 C 39.359375 -11.8125 38.585938 -9.039062 37.046875 -6.5625 C 35.515625 -4.082031 33.328125 -2.140625 30.484375 -0.734375 C 27.648438 0.671875 24.375 1.375 20.65625 1.375 Z M 20.65625 1.375 "/></g></g></g><g fill="#ffffff" fill-opacity="1"><g transform="translate(211.667083, 216.643247)"><g><path d="M 8.125 -40.71875 L 1.46875 -40.71875 L 1.46875 -51.984375 L 8.125 -51.984375 L 8.125 -71.171875 L 21.140625 -71.171875 L 21.140625 -51.984375 L 28.875 -51.984375 L 28.875 -40.71875 L 21.140625 -40.71875 L 21.140625 0 L 8.125 0 Z M 8.125 -40.71875 "/></g></g></g><g fill="#ffffff" fill-opacity="1"><g transform="translate(231.04666, 216.643247)"><g><path d="M 28.6875 1.375 C 24.3125 1.375 20.210938 0.203125 16.390625 -2.140625 C 12.578125 -4.492188 9.546875 -7.757812 7.296875 -11.9375 C 5.046875 -16.113281 3.921875 -20.78125 3.921875 -25.9375 C 3.921875 -31.226562 5.007812 -35.960938 7.1875 -40.140625 C 9.375 -44.316406 12.328125 -47.5625 16.046875 -49.875 C 19.773438 -52.1875 23.890625 -53.34375 28.390625 -53.34375 C 34.585938 -53.34375 40.035156 -50.992188 44.734375 -46.296875 L 44.734375 -51.984375 L 57.75 -51.984375 L 57.75 0 L 44.734375 0 L 44.734375 -5.484375 C 42.390625 -3.203125 39.925781 -1.488281 37.34375 -0.34375 C 34.769531 0.800781 31.882812 1.375 28.6875 1.375 Z M 31.03125 -10.578125 C 33.707031 -10.578125 36.140625 -11.210938 38.328125 -12.484375 C 40.515625 -13.753906 42.226562 -15.578125 43.46875 -17.953125 C 44.707031 -20.335938 45.328125 -23.066406 45.328125 -26.140625 C 45.328125 -29.140625 44.707031 -31.796875 43.46875 -34.109375 C 42.226562 -36.429688 40.53125 -38.226562 38.375 -39.5 C 36.21875 -40.769531 33.769531 -41.40625 31.03125 -41.40625 C 28.226562 -41.40625 25.765625 -40.71875 23.640625 -39.34375 C 21.515625 -37.976562 19.878906 -36.132812 18.734375 -33.8125 C 17.597656 -31.5 17.03125 -28.90625 17.03125 -26.03125 C 17.03125 -23.101562 17.632812 -20.460938 18.84375 -18.109375 C 20.050781 -15.753906 21.710938 -13.910156 23.828125 -12.578125 C 25.953125 -11.242188 28.351562 -10.578125 31.03125 -10.578125 Z M 31.03125 -10.578125 "/></g></g></g><g fill="#ffffff" fill-opacity="1"><g transform="translate(285.370821, 216.643247)"><g><path d="M 20.65625 1.375 C 16.875 1.375 13.460938 0.625 10.421875 -0.875 C 7.390625 -2.375 4.734375 -4.59375 2.453125 -7.53125 L 10.46875 -16.34375 C 12.039062 -14.582031 13.820312 -13.128906 15.8125 -11.984375 C 17.800781 -10.847656 19.644531 -10.28125 21.34375 -10.28125 C 22.96875 -10.28125 24.332031 -10.6875 25.4375 -11.5 C 26.550781 -12.3125 27.109375 -13.304688 27.109375 -14.484375 C 27.109375 -15.265625 26.878906 -15.960938 26.421875 -16.578125 C 25.972656 -17.203125 25.238281 -17.859375 24.21875 -18.546875 C 23.207031 -19.234375 21.726562 -20.066406 19.78125 -21.046875 C 15.925781 -23.003906 12.90625 -24.832031 10.71875 -26.53125 C 8.53125 -28.226562 6.929688 -30.003906 5.921875 -31.859375 C 4.910156 -33.722656 4.40625 -35.894531 4.40625 -38.375 C 4.40625 -41.050781 5.125 -43.546875 6.5625 -45.859375 C 8 -48.179688 9.988281 -50.007812 12.53125 -51.34375 C 15.070312 -52.675781 17.976562 -53.34375 21.25 -53.34375 C 24.632812 -53.34375 27.8125 -52.609375 30.78125 -51.140625 C 33.75 -49.671875 36.28125 -47.535156 38.375 -44.734375 L 30.34375 -36.609375 C 28.78125 -38.171875 27.265625 -39.359375 25.796875 -40.171875 C 24.328125 -40.992188 22.84375 -41.40625 21.34375 -41.40625 C 19.96875 -41.40625 18.835938 -41.128906 17.953125 -40.578125 C 17.078125 -40.023438 16.640625 -39.257812 16.640625 -38.28125 C 16.640625 -37.363281 17 -36.609375 17.71875 -36.015625 C 18.4375 -35.429688 19.644531 -34.75 21.34375 -33.96875 C 25.84375 -31.8125 29.363281 -29.835938 31.90625 -28.046875 C 34.457031 -26.253906 36.335938 -24.328125 37.546875 -22.265625 C 38.753906 -20.210938 39.359375 -17.75 39.359375 -14.875 C 39.359375 -11.8125 38.585938 -9.039062 37.046875 -6.5625 C 35.515625 -4.082031 33.328125 -2.140625 30.484375 -0.734375 C 27.648438 0.671875 24.375 1.375 20.65625 1.375 Z M 20.65625 1.375 "/></g></g></g><g fill="#ffffff" fill-opacity="1"><g transform="translate(318.454158, 216.643247)"><g><path d="M 19.671875 -72.046875 L 19.671875 -46.6875 C 22.285156 -48.90625 24.816406 -50.566406 27.265625 -51.671875 C 29.710938 -52.785156 32.304688 -53.34375 35.046875 -53.34375 C 38.367188 -53.34375 41.382812 -52.625 44.09375 -51.1875 C 46.800781 -49.757812 48.9375 -47.609375 50.5 -44.734375 C 52.070312 -41.859375 52.859375 -38.398438 52.859375 -34.359375 L 52.859375 0 L 39.84375 0 L 39.84375 -24.578125 C 39.84375 -28.421875 39.613281 -31.53125 39.15625 -33.90625 C 38.695312 -36.289062 37.832031 -38.132812 36.5625 -39.4375 C 35.289062 -40.75 33.414062 -41.40625 30.9375 -41.40625 C 28.582031 -41.40625 26.554688 -40.734375 24.859375 -39.390625 C 23.160156 -38.054688 21.867188 -36.28125 20.984375 -34.0625 C 20.109375 -31.84375 19.671875 -29.429688 19.671875 -26.828125 L 19.671875 0 L 6.65625 0 L 6.65625 -72.046875 Z M 19.671875 -72.046875 "/></g></g></g></svg>