<svg xmlns="http://www.w3.org/2000/svg" xmlns:xlink="http://www.w3.org/1999/xlink" width="500" zoomAndPan="magnify" viewBox="0 0 375 374.999991" height="500" preserveAspectRatio="xMidYMid meet" version="1.0"><defs><clipPath id="217f2046ed"><path d="M 46.207031 40.214844 L 328.792969 40.214844 L 328.792969 334.785156 L 46.207031 334.785156 Z M 46.207031 40.214844 " clip-rule="nonzero"/></clipPath><clipPath id="963aed2785"><path d="M 11 6 L 364 6 L 364 369 L 11 369 Z M 11 6 " clip-rule="nonzero"/></clipPath><clipPath id="7ce4cf2264"><path d="M 11.058594 84.910156 L 282.679688 6.953125 L 363.941406 290.089844 L 92.324219 368.046875 Z M 11.058594 84.910156 " clip-rule="nonzero"/></clipPath><clipPath id="af8e193b5f"><path d="M 11 6 L 364 6 L 364 369 L 11 369 Z M 11 6 " clip-rule="nonzero"/></clipPath><clipPath id="66597d2351"><path d="M 11.058594 84.910156 L 283.0625 6.839844 L 364.371094 290.125 L 92.367188 368.195312 Z M 11.058594 84.910156 " clip-rule="nonzero"/></clipPath><clipPath id="e425981530"><path d="M 11.058594 84.910156 L 282.671875 6.953125 L 363.933594 290.082031 L 92.320312 368.039062 Z M 11.058594 84.910156 " clip-rule="nonzero"/></clipPath><clipPath id="667b1f8934"><path d="M 220 173 L 249.5 173 L 249.5 241 L 220 241 Z M 220 173 " clip-rule="nonzero"/></clipPath><clipPath id="4db3aa7f4b"><path d="M 158 208 L 216 208 L 216 249.5 L 158 249.5 Z M 158 208 " clip-rule="nonzero"/></clipPath><clipPath id="fbfd42393e"><path d="M 125.613281 189 L 184 189 L 184 240 L 125.613281 240 Z M 125.613281 189 " clip-rule="nonzero"/></clipPath><clipPath id="fd45cbe222"><path d="M 125.613281 134 L 155 134 L 155 202 L 125.613281 202 Z M 125.613281 134 " clip-rule="nonzero"/></clipPath><clipPath id="1c5fdd9928"><path d="M 159 125.613281 L 217 125.613281 L 217 167 L 159 167 Z M 159 125.613281 " clip-rule="nonzero"/></clipPath><clipPath id="422e634a4a"><path d="M 191 135 L 249.5 135 L 249.5 186 L 191 186 Z M 191 135 " clip-rule="nonzero"/></clipPath></defs><g clip-path="url(#217f2046ed)"><path fill="#ff5600" d="M 46.207031 40.214844 L 328.792969 40.214844 L 328.792969 334.945312 L 46.207031 334.945312 Z M 46.207031 40.214844 " fill-opacity="1" fill-rule="nonzero"/></g><g clip-path="url(#963aed2785)"><g clip-path="url(#7ce4cf2264)"><path fill="#ff5600" d="M 11.058594 84.910156 L 282.679688 6.953125 L 363.988281 290.242188 L 92.367188 368.199219 Z M 11.058594 84.910156 " fill-opacity="1" fill-rule="nonzero"/></g></g><g clip-path="url(#af8e193b5f)"><g clip-path="url(#66597d2351)"><g clip-path="url(#e425981530)"><path stroke-linecap="butt" transform="matrix(1.253477, -0.359763, 0.359763, 1.253477, 11.059754, 84.909362)" fill="none" stroke-linejoin="miter" d="M -0.00102353 0.000340173 L 216.687025 -0.000170425 L 216.687212 225.874731 L -0.000835704 225.875242 Z M -0.00102353 0.000340173 " stroke="#ffffff" stroke-width="13.802795" stroke-opacity="1" stroke-miterlimit="4"/></g></g></g><g clip-path="url(#667b1f8934)"><path fill="#ffffff" d="M 220.121094 173.65625 L 220.121094 240.085938 C 236.882812 229.667969 248.300781 211.441406 249.296875 190.5 L 220.121094 173.65625 " fill-opacity="1" fill-rule="nonzero"/></g><g clip-path="url(#4db3aa7f4b)"><path fill="#ffffff" d="M 215.796875 208.820312 L 187.5 225.160156 L 187.492188 225.160156 L 158.253906 242.039062 C 166.96875 246.71875 176.921875 249.378906 187.5 249.378906 C 197.703125 249.378906 207.320312 246.898438 215.796875 242.527344 L 215.796875 208.820312 " fill-opacity="1" fill-rule="nonzero"/></g><g clip-path="url(#fbfd42393e)"><path fill="#ffffff" d="M 183.164062 222.660156 L 154.882812 206.332031 L 125.644531 189.460938 C 126.296875 210.460938 137.433594 228.832031 153.988281 239.511719 L 183.164062 222.660156 " fill-opacity="1" fill-rule="nonzero"/></g><g clip-path="url(#fd45cbe222)"><path fill="#ffffff" d="M 154.882812 201.339844 L 154.882812 134.90625 C 138.101562 145.320312 126.695312 163.546875 125.691406 184.496094 L 154.882812 201.339844 " fill-opacity="1" fill-rule="nonzero"/></g><g clip-path="url(#1c5fdd9928)"><path fill="#ffffff" d="M 187.5 125.613281 C 177.300781 125.613281 167.695312 128.085938 159.210938 132.460938 L 159.210938 166.160156 L 187.5 149.824219 L 216.742188 132.953125 C 208.035156 128.273438 198.078125 125.613281 187.5 125.613281 " fill-opacity="1" fill-rule="nonzero"/></g><g clip-path="url(#422e634a4a)"><path fill="#ffffff" d="M 221.011719 135.480469 L 191.828125 152.324219 L 220.121094 168.660156 L 249.351562 185.535156 C 248.699219 164.53125 237.570312 146.15625 221.011719 135.480469 " fill-opacity="1" fill-rule="nonzero"/></g></svg>