<svg xmlns="http://www.w3.org/2000/svg" xmlns:xlink="http://www.w3.org/1999/xlink" width="500" zoomAndPan="magnify" viewBox="0 0 375 374.999991" height="500" preserveAspectRatio="xMidYMid meet" version="1.0"><defs><g/><clipPath id="e7bde97431"><path d="M 20.226562 152.054688 L 88.230469 152.054688 L 88.230469 222.945312 L 20.226562 222.945312 Z M 20.226562 152.054688 " clip-rule="nonzero"/></clipPath><clipPath id="8b792d87a2"><path d="M 11 144 L 97 144 L 97 231 L 11 231 Z M 11 144 " clip-rule="nonzero"/></clipPath><clipPath id="8829c8902b"><path d="M 11.769531 162.8125 L 77.132812 144.050781 L 96.691406 212.1875 L 31.324219 230.949219 Z M 11.769531 162.8125 " clip-rule="nonzero"/></clipPath><clipPath id="370b196ab3"><path d="M 11 144 L 97 144 L 97 231 L 11 231 Z M 11 144 " clip-rule="nonzero"/></clipPath><clipPath id="b8b381cecd"><path d="M 11.769531 162.8125 L 77.226562 144.023438 L 96.792969 212.195312 L 31.335938 230.984375 Z M 11.769531 162.8125 " clip-rule="nonzero"/></clipPath><clipPath id="f1d2477c4e"><path d="M 11.769531 162.8125 L 77.132812 144.050781 L 96.6875 212.1875 L 31.324219 230.945312 Z M 11.769531 162.8125 " clip-rule="nonzero"/></clipPath><clipPath id="f157fee55e"><path d="M 62 184 L 69.152344 184 L 69.152344 201 L 62 201 Z M 62 184 " clip-rule="nonzero"/></clipPath><clipPath id="62cff96e32"><path d="M 47 192 L 62 192 L 62 202.421875 L 47 202.421875 Z M 47 192 " clip-rule="nonzero"/></clipPath><clipPath id="2ca3f46ce9"><path d="M 39.335938 187 L 54 187 L 54 201 L 39.335938 201 Z M 39.335938 187 " clip-rule="nonzero"/></clipPath><clipPath id="8d8763bb9b"><path d="M 39.335938 174 L 47 174 L 47 191 L 39.335938 191 Z M 39.335938 174 " clip-rule="nonzero"/></clipPath><clipPath id="6f60dcffd1"><path d="M 47 172.605469 L 62 172.605469 L 62 183 L 47 183 Z M 47 172.605469 " clip-rule="nonzero"/></clipPath><clipPath id="fd73d936d1"><path d="M 55 174 L 69.152344 174 L 69.152344 188 L 55 188 Z M 55 174 " clip-rule="nonzero"/></clipPath></defs><g clip-path="url(#e7bde97431)"><path fill="#ff5600" d="M 20.226562 152.054688 L 88.230469 152.054688 L 88.230469 222.984375 L 20.226562 222.984375 Z M 20.226562 152.054688 " fill-opacity="1" fill-rule="nonzero"/></g><g clip-path="url(#8b792d87a2)"><g clip-path="url(#8829c8902b)"><path fill="#ff5600" d="M 11.769531 162.8125 L 77.132812 144.050781 L 96.703125 212.226562 L 31.335938 230.984375 Z M 11.769531 162.8125 " fill-opacity="1" fill-rule="nonzero"/></g></g><g clip-path="url(#370b196ab3)"><g clip-path="url(#b8b381cecd)"><g clip-path="url(#f1d2477c4e)"><path stroke-linecap="butt" transform="matrix(0.301652, -0.0865778, 0.0865778, 0.301652, 11.768953, 162.811249)" fill="none" stroke-linejoin="miter" d="M 0.000671358 0.00433883 L 216.686529 -0.000733651 L 216.682285 225.876613 L -0.000138696 225.869721 Z M 0.000671358 0.00433883 " stroke="#ffffff" stroke-width="19.118595" stroke-opacity="1" stroke-miterlimit="4"/></g></g></g><g clip-path="url(#f157fee55e)"><path fill="#ffffff" d="M 62.078125 184.167969 L 62.078125 200.15625 C 66.113281 197.648438 68.863281 193.261719 69.101562 188.222656 L 62.078125 184.167969 " fill-opacity="1" fill-rule="nonzero"/></g><g clip-path="url(#62cff96e32)"><path fill="#ffffff" d="M 61.039062 192.632812 L 54.230469 196.5625 L 54.226562 196.5625 L 47.191406 200.625 C 49.289062 201.75 51.683594 202.390625 54.230469 202.390625 C 56.683594 202.390625 59 201.792969 61.039062 200.742188 L 61.039062 192.632812 " fill-opacity="1" fill-rule="nonzero"/></g><g clip-path="url(#2ca3f46ce9)"><path fill="#ffffff" d="M 53.1875 195.960938 L 46.378906 192.03125 L 39.34375 187.972656 C 39.5 193.027344 42.179688 197.445312 46.164062 200.015625 L 53.1875 195.960938 " fill-opacity="1" fill-rule="nonzero"/></g><g clip-path="url(#8d8763bb9b)"><path fill="#ffffff" d="M 46.378906 190.832031 L 46.378906 174.84375 C 42.34375 177.347656 39.597656 181.734375 39.355469 186.777344 L 46.378906 190.832031 " fill-opacity="1" fill-rule="nonzero"/></g><g clip-path="url(#6f60dcffd1)"><path fill="#ffffff" d="M 54.230469 172.605469 C 51.773438 172.605469 49.464844 173.203125 47.421875 174.253906 L 47.421875 182.363281 L 54.230469 178.433594 L 61.265625 174.371094 C 59.171875 173.246094 56.777344 172.605469 54.230469 172.605469 " fill-opacity="1" fill-rule="nonzero"/></g><g clip-path="url(#fd73d936d1)"><path fill="#ffffff" d="M 62.292969 174.980469 L 55.269531 179.035156 L 62.078125 182.964844 L 69.113281 187.027344 C 68.957031 181.972656 66.277344 177.550781 62.292969 174.980469 " fill-opacity="1" fill-rule="nonzero"/></g><g fill="#ffffff" fill-opacity="1"><g transform="translate(100.41905, 214.095336)"><g><path d="M 5.609375 -49.1875 L 15 -49.1875 L 15 -30.6875 L 31.578125 -30.6875 L 31.578125 -49.1875 L 40.96875 -49.1875 L 40.96875 0 L 31.578125 0 L 31.578125 -21.515625 L 15 -21.515625 L 15 0 L 5.609375 0 Z M 5.609375 -49.1875 "/></g></g></g><g fill="#ffffff" fill-opacity="1"><g transform="translate(140.009585, 214.095336)"><g><path d="M 21.84375 0.953125 C 18.289062 0.953125 15.050781 0.0976562 12.125 -1.609375 C 9.195312 -3.316406 6.898438 -5.644531 5.234375 -8.59375 C 3.566406 -11.539062 2.734375 -14.75 2.734375 -18.21875 C 2.734375 -21.738281 3.601562 -24.957031 5.34375 -27.875 C 7.082031 -30.800781 9.410156 -33.109375 12.328125 -34.796875 C 15.253906 -36.484375 18.425781 -37.328125 21.84375 -37.328125 C 25.269531 -37.328125 28.441406 -36.484375 31.359375 -34.796875 C 34.285156 -33.109375 36.617188 -30.800781 38.359375 -27.875 C 40.097656 -24.957031 40.96875 -21.738281 40.96875 -18.21875 C 40.96875 -14.75 40.132812 -11.539062 38.46875 -8.59375 C 36.800781 -5.644531 34.503906 -3.316406 31.578125 -1.609375 C 28.648438 0.0976562 25.40625 0.953125 21.84375 0.953125 Z M 21.84375 -7.671875 C 23.675781 -7.671875 25.359375 -8.101562 26.890625 -8.96875 C 28.421875 -9.84375 29.617188 -11.078125 30.484375 -12.671875 C 31.347656 -14.265625 31.78125 -16.09375 31.78125 -18.15625 C 31.78125 -20.207031 31.359375 -22.03125 30.515625 -23.625 C 29.671875 -25.226562 28.492188 -26.472656 26.984375 -27.359375 C 25.484375 -28.253906 23.769531 -28.703125 21.84375 -28.703125 C 19.925781 -28.703125 18.210938 -28.253906 16.703125 -27.359375 C 15.203125 -26.472656 14.03125 -25.226562 13.1875 -23.625 C 12.34375 -22.03125 11.921875 -20.207031 11.921875 -18.15625 C 11.921875 -16.09375 12.351562 -14.265625 13.21875 -12.671875 C 14.082031 -11.078125 15.28125 -9.84375 16.8125 -8.96875 C 18.34375 -8.101562 20.019531 -7.671875 21.84375 -7.671875 Z M 21.84375 -7.671875 "/></g></g></g><g fill="#ffffff" fill-opacity="1"><g transform="translate(176.723282, 214.095336)"><g><path d="M 5.6875 -28.5 L 1.03125 -28.5 L 1.03125 -36.375 L 5.6875 -36.375 L 5.6875 -49.796875 L 14.796875 -49.796875 L 14.796875 -36.375 L 20.203125 -36.375 L 20.203125 -28.5 L 14.796875 -28.5 L 14.796875 0 L 5.6875 0 Z M 5.6875 -28.5 "/></g></g></g><g fill="#ffffff" fill-opacity="1"><g transform="translate(190.285296, 214.095336)"><g><path d="M 21.84375 0.953125 C 18.289062 0.953125 15.050781 0.0976562 12.125 -1.609375 C 9.195312 -3.316406 6.898438 -5.644531 5.234375 -8.59375 C 3.566406 -11.539062 2.734375 -14.75 2.734375 -18.21875 C 2.734375 -21.738281 3.601562 -24.957031 5.34375 -27.875 C 7.082031 -30.800781 9.410156 -33.109375 12.328125 -34.796875 C 15.253906 -36.484375 18.425781 -37.328125 21.84375 -37.328125 C 25.269531 -37.328125 28.441406 -36.484375 31.359375 -34.796875 C 34.285156 -33.109375 36.617188 -30.800781 38.359375 -27.875 C 40.097656 -24.957031 40.96875 -21.738281 40.96875 -18.21875 C 40.96875 -14.75 40.132812 -11.539062 38.46875 -8.59375 C 36.800781 -5.644531 34.503906 -3.316406 31.578125 -1.609375 C 28.648438 0.0976562 25.40625 0.953125 21.84375 0.953125 Z M 21.84375 -7.671875 C 23.675781 -7.671875 25.359375 -8.101562 26.890625 -8.96875 C 28.421875 -9.84375 29.617188 -11.078125 30.484375 -12.671875 C 31.347656 -14.265625 31.78125 -16.09375 31.78125 -18.15625 C 31.78125 -20.207031 31.359375 -22.03125 30.515625 -23.625 C 29.671875 -25.226562 28.492188 -26.472656 26.984375 -27.359375 C 25.484375 -28.253906 23.769531 -28.703125 21.84375 -28.703125 C 19.925781 -28.703125 18.210938 -28.253906 16.703125 -27.359375 C 15.203125 -26.472656 14.03125 -25.226562 13.1875 -23.625 C 12.34375 -22.03125 11.921875 -20.207031 11.921875 -18.15625 C 11.921875 -16.09375 12.351562 -14.265625 13.21875 -12.671875 C 14.082031 -11.078125 15.28125 -9.84375 16.8125 -8.96875 C 18.34375 -8.101562 20.019531 -7.671875 21.84375 -7.671875 Z M 21.84375 -7.671875 "/></g></g></g><g fill="#ffffff" fill-opacity="1"><g transform="translate(226.998993, 214.095336)"><g><path d="M 14.453125 0.953125 C 11.804688 0.953125 9.421875 0.429688 7.296875 -0.609375 C 5.171875 -1.660156 3.3125 -3.21875 1.71875 -5.28125 L 7.328125 -11.4375 C 8.421875 -10.207031 9.664062 -9.191406 11.0625 -8.390625 C 12.457031 -7.585938 13.75 -7.1875 14.9375 -7.1875 C 16.070312 -7.1875 17.023438 -7.472656 17.796875 -8.046875 C 18.578125 -8.617188 18.96875 -9.316406 18.96875 -10.140625 C 18.96875 -10.679688 18.804688 -11.171875 18.484375 -11.609375 C 18.171875 -12.046875 17.660156 -12.503906 16.953125 -12.984375 C 16.242188 -13.460938 15.207031 -14.046875 13.84375 -14.734375 C 11.144531 -16.097656 9.03125 -17.375 7.5 -18.5625 C 5.96875 -19.75 4.847656 -20.992188 4.140625 -22.296875 C 3.429688 -23.597656 3.078125 -25.117188 3.078125 -26.859375 C 3.078125 -28.722656 3.578125 -30.46875 4.578125 -32.09375 C 5.585938 -33.71875 6.984375 -34.992188 8.765625 -35.921875 C 10.546875 -36.859375 12.578125 -37.328125 14.859375 -37.328125 C 17.234375 -37.328125 19.457031 -36.8125 21.53125 -35.78125 C 23.613281 -34.757812 25.390625 -33.265625 26.859375 -31.296875 L 21.234375 -25.625 C 20.140625 -26.71875 19.078125 -27.546875 18.046875 -28.109375 C 17.023438 -28.679688 15.988281 -28.96875 14.9375 -28.96875 C 13.976562 -28.96875 13.1875 -28.773438 12.5625 -28.390625 C 11.945312 -28.003906 11.640625 -27.46875 11.640625 -26.78125 C 11.640625 -26.144531 11.890625 -25.617188 12.390625 -25.203125 C 12.898438 -24.796875 13.75 -24.316406 14.9375 -23.765625 C 18.082031 -22.265625 20.546875 -20.882812 22.328125 -19.625 C 24.109375 -18.363281 25.421875 -17.015625 26.265625 -15.578125 C 27.109375 -14.140625 27.53125 -12.414062 27.53125 -10.40625 C 27.53125 -8.257812 26.992188 -6.316406 25.921875 -4.578125 C 24.847656 -2.847656 23.316406 -1.492188 21.328125 -0.515625 C 19.347656 0.460938 17.054688 0.953125 14.453125 0.953125 Z M 14.453125 0.953125 "/></g></g></g><g fill="#ffffff" fill-opacity="1"><g transform="translate(250.150469, 214.095336)"><g><path d="M 5.6875 -28.5 L 1.03125 -28.5 L 1.03125 -36.375 L 5.6875 -36.375 L 5.6875 -49.796875 L 14.796875 -49.796875 L 14.796875 -36.375 L 20.203125 -36.375 L 20.203125 -28.5 L 14.796875 -28.5 L 14.796875 0 L 5.6875 0 Z M 5.6875 -28.5 "/></g></g></g><g fill="#ffffff" fill-opacity="1"><g transform="translate(263.712484, 214.095336)"><g><path d="M 20.078125 0.953125 C 17.015625 0.953125 14.144531 0.132812 11.46875 -1.5 C 8.800781 -3.144531 6.675781 -5.425781 5.09375 -8.34375 C 3.519531 -11.269531 2.734375 -14.539062 2.734375 -18.15625 C 2.734375 -21.851562 3.5 -25.160156 5.03125 -28.078125 C 6.5625 -31.003906 8.628906 -33.273438 11.234375 -34.890625 C 13.835938 -36.515625 16.710938 -37.328125 19.859375 -37.328125 C 24.203125 -37.328125 28.015625 -35.6875 31.296875 -32.40625 L 31.296875 -36.375 L 40.421875 -36.375 L 40.421875 0 L 31.296875 0 L 31.296875 -3.84375 C 29.660156 -2.238281 27.9375 -1.035156 26.125 -0.234375 C 24.320312 0.554688 22.304688 0.953125 20.078125 0.953125 Z M 21.71875 -7.390625 C 23.582031 -7.390625 25.28125 -7.832031 26.8125 -8.71875 C 28.34375 -9.613281 29.539062 -10.894531 30.40625 -12.5625 C 31.28125 -14.226562 31.71875 -16.140625 31.71875 -18.296875 C 31.71875 -20.390625 31.28125 -22.242188 30.40625 -23.859375 C 29.539062 -25.484375 28.351562 -26.738281 26.84375 -27.625 C 25.34375 -28.519531 23.632812 -28.96875 21.71875 -28.96875 C 19.75 -28.96875 18.019531 -28.488281 16.53125 -27.53125 C 15.050781 -26.570312 13.910156 -25.28125 13.109375 -23.65625 C 12.316406 -22.039062 11.921875 -20.226562 11.921875 -18.21875 C 11.921875 -16.164062 12.34375 -14.316406 13.1875 -12.671875 C 14.03125 -11.023438 15.191406 -9.734375 16.671875 -8.796875 C 18.160156 -7.859375 19.84375 -7.390625 21.71875 -7.390625 Z M 21.71875 -7.390625 "/></g></g></g><g fill="#ffffff" fill-opacity="1"><g transform="translate(301.727614, 214.095336)"><g><path d="M 14.453125 0.953125 C 11.804688 0.953125 9.421875 0.429688 7.296875 -0.609375 C 5.171875 -1.660156 3.3125 -3.21875 1.71875 -5.28125 L 7.328125 -11.4375 C 8.421875 -10.207031 9.664062 -9.191406 11.0625 -8.390625 C 12.457031 -7.585938 13.75 -7.1875 14.9375 -7.1875 C 16.070312 -7.1875 17.023438 -7.472656 17.796875 -8.046875 C 18.578125 -8.617188 18.96875 -9.316406 18.96875 -10.140625 C 18.96875 -10.679688 18.804688 -11.171875 18.484375 -11.609375 C 18.171875 -12.046875 17.660156 -12.503906 16.953125 -12.984375 C 16.242188 -13.460938 15.207031 -14.046875 13.84375 -14.734375 C 11.144531 -16.097656 9.03125 -17.375 7.5 -18.5625 C 5.96875 -19.75 4.847656 -20.992188 4.140625 -22.296875 C 3.429688 -23.597656 3.078125 -25.117188 3.078125 -26.859375 C 3.078125 -28.722656 3.578125 -30.46875 4.578125 -32.09375 C 5.585938 -33.71875 6.984375 -34.992188 8.765625 -35.921875 C 10.546875 -36.859375 12.578125 -37.328125 14.859375 -37.328125 C 17.234375 -37.328125 19.457031 -36.8125 21.53125 -35.78125 C 23.613281 -34.757812 25.390625 -33.265625 26.859375 -31.296875 L 21.234375 -25.625 C 20.140625 -26.71875 19.078125 -27.546875 18.046875 -28.109375 C 17.023438 -28.679688 15.988281 -28.96875 14.9375 -28.96875 C 13.976562 -28.96875 13.1875 -28.773438 12.5625 -28.390625 C 11.945312 -28.003906 11.640625 -27.46875 11.640625 -26.78125 C 11.640625 -26.144531 11.890625 -25.617188 12.390625 -25.203125 C 12.898438 -24.796875 13.75 -24.316406 14.9375 -23.765625 C 18.082031 -22.265625 20.546875 -20.882812 22.328125 -19.625 C 24.109375 -18.363281 25.421875 -17.015625 26.265625 -15.578125 C 27.109375 -14.140625 27.53125 -12.414062 27.53125 -10.40625 C 27.53125 -8.257812 26.992188 -6.316406 25.921875 -4.578125 C 24.847656 -2.847656 23.316406 -1.492188 21.328125 -0.515625 C 19.347656 0.460938 17.054688 0.953125 14.453125 0.953125 Z M 14.453125 0.953125 "/></g></g></g><g fill="#ffffff" fill-opacity="1"><g transform="translate(324.879079, 214.095336)"><g><path d="M 13.765625 -50.421875 L 13.765625 -32.671875 C 15.597656 -34.222656 17.367188 -35.382812 19.078125 -36.15625 C 20.785156 -36.9375 22.597656 -37.328125 24.515625 -37.328125 C 26.847656 -37.328125 28.960938 -36.820312 30.859375 -35.8125 C 32.753906 -34.8125 34.25 -33.304688 35.34375 -31.296875 C 36.4375 -29.296875 36.984375 -26.878906 36.984375 -24.046875 L 36.984375 0 L 27.875 0 L 27.875 -17.1875 C 27.875 -19.882812 27.710938 -22.066406 27.390625 -23.734375 C 27.078125 -25.398438 26.472656 -26.6875 25.578125 -27.59375 C 24.691406 -28.507812 23.378906 -28.96875 21.640625 -28.96875 C 20.003906 -28.96875 18.59375 -28.5 17.40625 -27.5625 C 16.21875 -26.632812 15.3125 -25.394531 14.6875 -23.84375 C 14.070312 -22.289062 13.765625 -20.597656 13.765625 -18.765625 L 13.765625 0 L 4.65625 0 L 4.65625 -50.421875 Z M 13.765625 -50.421875 "/></g></g></g></svg>